<svg xmlns="http://www.w3.org/2000/svg" viewBox="0 0 24 24" fill="currentColor">
  <path d="M12 .5C5.73.5.99 5.24.99 11.5c0 4.87 3.15 9 7.52 10.46.55.1.75-.24.75-.53v-2.02c-3.06.66-3.7-1.47-3.7-1.47-.5-1.28-1.22-1.62-1.22-1.62-1-.69.08-.68.08-.68 1.1.08 1.68 1.14 1.68 1.14.98 1.68 2.56 1.2 3.18.92.1-.72.38-1.2.7-1.47-2.44-.28-5-1.22-5-5.43 0-1.2.43-2.17 1.13-2.94-.11-.28-.49-1.4.11-2.91 0 0 .92-.29 3.02 1.12a10.5 10.5 0 0 1 5.5 0c2.1-1.41 3.02-1.12 3.02-1.12.6 1.51.22 2.63.11 2.91.7.77 1.13 1.74 1.13 2.94 0 4.22-2.57 5.15-5.02 5.42.39.34.73 1 .73 2.02v3c0 .29.2.63.76.52 4.36-1.46 7.5-5.59 7.5-10.45C23.01 5.24 18.27.5 12 .5z"></path>
</svg>