<?xml version="1.0" encoding="UTF-8"?>
<!-- (c) Carrd Inc. All rights reserved. All logos and trademarks are property of their respective owners. -->
<svg xmlns="http://www.w3.org/2000/svg" version="1.1" xmlns:xlink="http://www.w3.org/1999/xlink" viewBox="0 0 40 40" display="none" width="0" height="0">
	<symbol id="arrow-right-light" viewBox="0 0 40 40"><path d="M34.1,19.9c0,0.3-0.1,0.3-0.1,0.4L21.3,33.1c-0.1,0.1-0.1,0.1-0.4,0.1c-0.3,0-0.3-0.1-0.4-0.1L19,31.6 c-0.1-0.1-0.1-0.1-0.1-0.4s0.1-0.3,0.1-0.4l9.2-9.2H5.8c-0.1,0-0.2,0-0.2,0c0,0,0,0,0,0c-0.1-0.1-0.1-0.2-0.1-0.4v-2.5 c0-0.2,0.1-0.4,0.1-0.5c0,0,0.1,0,0.2,0h22.4L19,9c-0.1-0.1-0.1-0.1-0.1-0.4c0-0.3,0.1-0.3,0.1-0.4l1.5-1.5c0.1-0.1,0.1-0.1,0.4-0.1 c0.3,0,0.3,0.1,0.4,0.1L34,19.5C34,19.6,34.1,19.6,34.1,19.9z"/></symbol>
	<symbol id="arrow-down-light" viewBox="0 0 40 40"><path d="M19.8,34.2c-0.3,0-0.3-0.1-0.4-0.1L6.6,21.4c-0.1-0.1-0.1-0.1-0.1-0.4c0-0.3,0.1-0.3,0.1-0.4l1.5-1.5 C8.2,19.1,8.2,19,8.5,19s0.3,0.1,0.4,0.1l9.2,9.2V5.9c0-0.1,0-0.2,0-0.2c0,0,0,0,0,0c0.1-0.1,0.2-0.1,0.4-0.1H21 c0.2,0,0.4,0.1,0.5,0.1c0,0,0,0.1,0,0.2v22.4l9.2-9.2c0.1-0.1,0.1-0.1,0.4-0.1c0.3,0,0.3,0.1,0.4,0.1l1.5,1.5 c0.1,0.1,0.1,0.1,0.1,0.4c0,0.3-0.1,0.3-0.1,0.4L20.2,34.1C20.1,34.1,20.1,34.2,19.8,34.2z"/></symbol>
	<symbol id="paw" viewBox="0 0 40 40"><path d="M37.9,20.5c-1.2,3.3-4,5.3-6.2,4.4c-2.2-0.8-2.6-4.1-1.3-7.4c1.2-3.3,3.6-5.3,5.8-4.4 C38.4,13.9,39.1,17.2,37.9,20.5z M24.5,15.5c-2.5-0.6-3.3-4.1-2.3-7.7c0.9-3.6,3.3-6.1,5.7-5.4c2.5,0.6,3.7,4.1,2.7,7.7 C29.7,13.7,26.9,16.1,24.5,15.5z M21,19.7c2.2,0.8,5,2.2,8.9,8.2c3.9,6-0.1,9.3-1.4,9.6c-1.2,0.3-2.6,0.6-5.7-1.2 c-1.4-0.8-2.3-0.9-2.8-1c-0.6,0.1-1.4,0.2-2.8,1c-3.1,1.8-4.5,1.5-5.7,1.2c-1.2-0.3-5.3-3.6-1.4-9.6c3.9-6,6.7-7.4,8.9-8.2 C19.2,19.7,20.9,19.7,21,19.7z M15.5,15.5c-2.5,0.6-5.2-1.8-6.1-5.4C8.5,6.4,9.7,3,12.1,2.3c2.5-0.6,4.8,1.8,5.7,5.4 C18.8,11.4,18,14.9,15.5,15.5z M8.3,24.9c-2.2,0.8-5-1.1-6.2-4.4c-1.2-3.3-0.4-6.6,1.8-7.4s4.6,1.1,5.8,4.4 C10.9,20.7,10.5,24.1,8.3,24.9z"/></symbol>
	<symbol id="twitter" viewBox="0 0 40 40"><path d="M36.3,10.2c-1,1.3-2.1,2.5-3.4,3.5c0,0.2,0,0.4,0,1c0,1.7-0.2,3.6-0.9,5.3c-0.6,1.7-1.2,3.5-2.4,5.1 c-1.1,1.5-2.3,3.1-3.7,4.3c-1.4,1.2-3.3,2.3-5.3,3c-2.1,0.8-4.2,1.2-6.6,1.2c-3.6,0-7-1-10.2-3c0.4,0,1.1,0.1,1.5,0.1 c3.1,0,5.9-1,8.2-2.9c-1.4,0-2.7-0.4-3.8-1.3c-1.2-1-1.9-2-2.2-3.3c0.4,0.1,1,0.1,1.2,0.1c0.6,0,1.2-0.1,1.7-0.2 c-1.4-0.3-2.7-1.1-3.7-2.3s-1.4-2.6-1.4-4.2v-0.1c1,0.6,2,0.9,3,0.9c-1-0.6-1.5-1.3-2.2-2.4c-0.6-1-0.9-2.1-0.9-3.3s0.3-2.3,1-3.4 c1.5,2.1,3.6,3.6,6,4.9s4.9,2,7.6,2.1c-0.1-0.6-0.1-1.1-0.1-1.4c0-1.8,0.8-3.5,2-4.7c1.2-1.2,2.9-2,4.7-2c2,0,3.6,0.8,4.8,2.1 c1.4-0.3,2.9-0.9,4.2-1.5c-0.4,1.5-1.4,2.7-2.9,3.6C33.8,11.2,35.1,10.9,36.3,10.2L36.3,10.2z"/></symbol>
	<symbol id="producthunt" viewBox="0 0 40 40"><path d="M23.6,5.1L23.6,5.1H9.2v29.7h5.9v-8.9h8.4c5.7,0,10.4-4.7,10.4-10.4S29.3,5.1,23.6,5.1L23.6,5.1z M23.6,20L23.6,20h-8.4 v-8.9h8.4c2.5,0,4.5,2,4.5,4.5S26,20,23.6,20z"/></symbol>
	<symbol id="wifi" viewBox="0 0 40 40"><path d="M37.3,17.3C32.4,12.4,26.7,9.7,20,9.7c-6.7,0-12.4,2.7-17.3,7.6c-0.9-1-1.8-2-2.7-3c11.6-12,29.3-11.3,40,0 C39.1,15.3,38.2,16.3,37.3,17.3z M34.5,19.6c-0.9,1-1.8,2-2.8,3.1c-3.3-3.4-7.1-5.2-11.7-5.2c-4.6,0-8.5,1.8-11.7,5.2 c-0.9-1-1.8-2-2.8-3C12.7,11.7,25.7,10.4,34.5,19.6z M28.9,25c-0.9,1-1.9,2.1-2.8,3.1c-1.7-1.8-3.7-2.8-6.1-2.8 c-2.4,0-4.4,1-6.1,2.8C13,27.1,12,26,11.1,25C15.7,19.8,23.8,19.5,28.9,25z M20,29.4c1.8,0,3.3,1.6,3.3,3.5c0,1.9-1.5,3.5-3.3,3.5 c-1.8,0-3.3-1.6-3.3-3.5C16.7,31,18.2,29.4,20,29.4z"/></symbol>
	<symbol id="email" viewBox="0 0 40 40"><path d="M37.5,12.6l-17.5,11.9L2.5,12.6c-.2-.1-.3-.2-.5-.2v-2.7c0-.8.6-1.4,1.4-1.4h33.1c.8,0,1.4.6,1.4,1.4v2.7c-.2,0-.4,0-.5.2ZM19.5,26.3c.2.1.3.2.5.2s.4,0,.5-.2l17.5-11.9v16.9c0,.8-.6,1.4-1.4,1.4H3.4c-.8,0-1.4-.6-1.4-1.4V14.4l17.5,11.9Z" /></symbol>
</svg>
