<svg xmlns="http://www.w3.org/2000/svg" viewBox="0 0 24 24" fill="currentColor">
  <path d="M12 2a10 10 0 100 20 10 10 0 000-20zm7.93 9h-3.95a15.6 15.6 0 00-1.38-5.03A8.02 8.02 0 0119.93 11zM12 4c.88 1.2 1.7 3.04 2.08 5H9.92c.38-1.96 1.2-3.8 2.08-5zM4.07 13h3.95c.18 1.86.74 3.66 1.38 5.03A8.02 8.02 0 014.07 13zm0-2a8.02 8.02 0 015.33-5.03A15.6 15.6 0 008.02 11H4.07zM12 20c-.88-1.2-1.7-3.04-2.08-5h4.16c-.38 1.96-1.2 3.8-2.08 5zm2.62-1.97c.64-1.37 1.2-3.17 1.38-5.03h3.95a8.02 8.02 0 01-5.33 5.03z"></path>
</svg>